<mxfile host="app.diagrams.net" modified="2023-06-04T14:31:32.226Z" agent="Mozilla/5.0 (Macintosh; Intel Mac OS X 10_15_7) AppleWebKit/605.1.15 (KHTML, like Gecko) Version/16.4 Safari/605.1.15" etag="iMAzwWX_yPa2miXn5Vup" version="21.3.6" type="github">
  <diagram name="Page-1" id="U1p5k2ou6aDQazZYMd7k">
    <mxGraphModel dx="1295" dy="728" grid="1" gridSize="10" guides="1" tooltips="1" connect="1" arrows="1" fold="1" page="1" pageScale="1" pageWidth="1169" pageHeight="827" math="0" shadow="0">
      <root>
        <mxCell id="0" />
        <mxCell id="1" parent="0" />
        <mxCell id="GppKYo8j6UHfjYzBci3K-132" value="&lt;font style=&quot;font-size: 9px;&quot;&gt;AppService&lt;/font&gt;" style="shape=umlLifeline;perimeter=lifelinePerimeter;whiteSpace=wrap;html=1;container=0;dropTarget=0;collapsible=0;recursiveResize=0;outlineConnect=0;portConstraint=eastwest;newEdgeStyle={&quot;edgeStyle&quot;:&quot;elbowEdgeStyle&quot;,&quot;elbow&quot;:&quot;vertical&quot;,&quot;curved&quot;:0,&quot;rounded&quot;:0};" parent="1" vertex="1">
          <mxGeometry x="390" y="60" width="100" height="620" as="geometry" />
        </mxCell>
        <mxCell id="GppKYo8j6UHfjYzBci3K-133" value="&lt;font style=&quot;font-size: 8px;&quot;&gt;&lt;b&gt;&lt;font color=&quot;#009900&quot;&gt;2:&lt;/font&gt; &lt;/b&gt;analysePIndSensor()&lt;/font&gt;" style="html=1;verticalAlign=bottom;endArrow=block;edgeStyle=elbowEdgeStyle;elbow=vertical;curved=0;rounded=0;" parent="1" source="t2bb7w7B9sQ-DITIagqw-6" edge="1">
          <mxGeometry x="0.0014" relative="1" as="geometry">
            <mxPoint x="260" y="140" as="sourcePoint" />
            <Array as="points">
              <mxPoint x="350" y="140" />
            </Array>
            <mxPoint x="435" y="140" as="targetPoint" />
            <mxPoint as="offset" />
          </mxGeometry>
        </mxCell>
        <mxCell id="GppKYo8j6UHfjYzBci3K-134" value="&lt;font style=&quot;font-size: 8px;&quot;&gt;DataSet&lt;br&gt;&lt;/font&gt;" style="shape=umlLifeline;perimeter=lifelinePerimeter;whiteSpace=wrap;html=1;container=0;dropTarget=0;collapsible=0;recursiveResize=0;outlineConnect=0;portConstraint=eastwest;newEdgeStyle={&quot;edgeStyle&quot;:&quot;elbowEdgeStyle&quot;,&quot;elbow&quot;:&quot;vertical&quot;,&quot;curved&quot;:0,&quot;rounded&quot;:0};" parent="1" vertex="1">
          <mxGeometry x="660" y="60" width="100" height="620" as="geometry" />
        </mxCell>
        <mxCell id="GppKYo8j6UHfjYzBci3K-178" value="" style="rounded=0;whiteSpace=wrap;html=1;" parent="1" vertex="1">
          <mxGeometry x="435" y="140" width="10" height="490" as="geometry" />
        </mxCell>
        <mxCell id="t2bb7w7B9sQ-DITIagqw-1" value="&lt;font style=&quot;font-size: 8px;&quot;&gt;SuperUser&lt;/font&gt;" style="shape=umlActor;verticalLabelPosition=bottom;verticalAlign=top;html=1;outlineConnect=0;" parent="1" vertex="1">
          <mxGeometry x="80" y="60" width="20" height="40" as="geometry" />
        </mxCell>
        <mxCell id="t2bb7w7B9sQ-DITIagqw-2" value="" style="endArrow=none;dashed=1;html=1;rounded=0;" parent="1" source="t2bb7w7B9sQ-DITIagqw-4" edge="1">
          <mxGeometry width="50" height="50" relative="1" as="geometry">
            <mxPoint x="90" y="390" as="sourcePoint" />
            <mxPoint x="90" y="120" as="targetPoint" />
          </mxGeometry>
        </mxCell>
        <mxCell id="t2bb7w7B9sQ-DITIagqw-3" value="" style="endArrow=none;dashed=1;html=1;rounded=0;" parent="1" target="t2bb7w7B9sQ-DITIagqw-4" edge="1">
          <mxGeometry width="50" height="50" relative="1" as="geometry">
            <mxPoint x="90" y="680" as="sourcePoint" />
            <mxPoint x="89.6" y="137" as="targetPoint" />
          </mxGeometry>
        </mxCell>
        <mxCell id="t2bb7w7B9sQ-DITIagqw-4" value="" style="rounded=0;whiteSpace=wrap;html=1;" parent="1" vertex="1">
          <mxGeometry x="85" y="125" width="10" height="35" as="geometry" />
        </mxCell>
        <mxCell id="t2bb7w7B9sQ-DITIagqw-6" value="&lt;font style=&quot;font-size: 9px;&quot;&gt;IHM&lt;/font&gt;" style="shape=umlLifeline;perimeter=lifelinePerimeter;whiteSpace=wrap;html=1;container=0;dropTarget=0;collapsible=0;recursiveResize=0;outlineConnect=0;portConstraint=eastwest;newEdgeStyle={&quot;edgeStyle&quot;:&quot;elbowEdgeStyle&quot;,&quot;elbow&quot;:&quot;vertical&quot;,&quot;curved&quot;:0,&quot;rounded&quot;:0};" parent="1" vertex="1">
          <mxGeometry x="190" y="60" width="100" height="620" as="geometry" />
        </mxCell>
        <mxCell id="t2bb7w7B9sQ-DITIagqw-11" value="" style="endArrow=classic;html=1;rounded=0;" parent="1" target="t2bb7w7B9sQ-DITIagqw-6" edge="1">
          <mxGeometry width="50" height="50" relative="1" as="geometry">
            <mxPoint x="95" y="130" as="sourcePoint" />
            <mxPoint x="145" y="80" as="targetPoint" />
          </mxGeometry>
        </mxCell>
        <mxCell id="t2bb7w7B9sQ-DITIagqw-13" value="&lt;font style=&quot;font-size: 8px;&quot;&gt;&lt;b style=&quot;border-color: var(--border-color);&quot;&gt;&lt;font style=&quot;border-color: var(--border-color);&quot; color=&quot;#009900&quot;&gt;1:&amp;nbsp;&lt;/font&gt;&lt;/b&gt;analysePIndSensor()&lt;/font&gt;" style="edgeLabel;html=1;align=center;verticalAlign=middle;resizable=0;points=[];" parent="t2bb7w7B9sQ-DITIagqw-11" vertex="1" connectable="0">
          <mxGeometry x="-0.2254" y="2" relative="1" as="geometry">
            <mxPoint x="12" y="-8" as="offset" />
          </mxGeometry>
        </mxCell>
        <mxCell id="htGnmACfLVr-9joNBe-F-8" value="" style="whiteSpace=wrap;html=1;" parent="1" vertex="1">
          <mxGeometry x="440" y="260" width="10" height="35" as="geometry" />
        </mxCell>
        <mxCell id="htGnmACfLVr-9joNBe-F-9" value="&lt;font style=&quot;font-size: 8px;&quot;&gt;&lt;b style=&quot;border-color: var(--border-color);&quot;&gt;&lt;font style=&quot;border-color: var(--border-color);&quot; color=&quot;#009900&quot;&gt;5:&lt;/font&gt;&amp;nbsp;&lt;/b&gt;getProvidedSensors() : vector &amp;lt;Sensor&amp;gt;&lt;/font&gt;" style="text;html=1;align=center;verticalAlign=middle;resizable=0;points=[];autosize=1;strokeColor=none;fillColor=none;" parent="1" vertex="1">
          <mxGeometry x="455" y="262.5" width="180" height="30" as="geometry" />
        </mxCell>
        <mxCell id="htGnmACfLVr-9joNBe-F-10" style="edgeStyle=orthogonalEdgeStyle;rounded=0;orthogonalLoop=1;jettySize=auto;html=1;exitX=1;exitY=0.25;exitDx=0;exitDy=0;" parent="1" edge="1">
          <mxGeometry relative="1" as="geometry">
            <mxPoint x="450" y="266.99" as="sourcePoint" />
            <mxPoint x="450" y="283.99" as="targetPoint" />
            <Array as="points">
              <mxPoint x="450" y="267.99" />
              <mxPoint x="460" y="267.99" />
              <mxPoint x="460" y="287.99" />
              <mxPoint x="450" y="287.99" />
            </Array>
          </mxGeometry>
        </mxCell>
        <mxCell id="htGnmACfLVr-9joNBe-F-13" value="" style="endArrow=block;html=1;rounded=0;endFill=1;exitX=1.167;exitY=0.513;exitDx=0;exitDy=0;exitPerimeter=0;" parent="1" source="GppKYo8j6UHfjYzBci3K-178" target="htGnmACfLVr-9joNBe-F-15" edge="1">
          <mxGeometry width="50" height="50" relative="1" as="geometry">
            <mxPoint x="450" y="390" as="sourcePoint" />
            <mxPoint x="610" y="439" as="targetPoint" />
            <Array as="points" />
          </mxGeometry>
        </mxCell>
        <mxCell id="htGnmACfLVr-9joNBe-F-14" value="&lt;b style=&quot;border-color: var(--border-color); caret-color: rgb(0, 153, 0); color: rgb(0, 153, 0);&quot;&gt;9:&amp;nbsp;&lt;/b&gt;getId()" style="edgeLabel;html=1;align=center;verticalAlign=middle;resizable=0;points=[];" parent="htGnmACfLVr-9joNBe-F-13" vertex="1" connectable="0">
          <mxGeometry x="-0.4123" y="2" relative="1" as="geometry">
            <mxPoint x="50" y="2" as="offset" />
          </mxGeometry>
        </mxCell>
        <mxCell id="htGnmACfLVr-9joNBe-F-16" value="" style="endArrow=open;html=1;rounded=0;endFill=0;dashed=1;entryX=1.024;entryY=0.538;entryDx=0;entryDy=0;entryPerimeter=0;" parent="1" source="htGnmACfLVr-9joNBe-F-15" target="GppKYo8j6UHfjYzBci3K-178" edge="1">
          <mxGeometry width="50" height="50" relative="1" as="geometry">
            <mxPoint x="620" y="459" as="sourcePoint" />
            <mxPoint x="440" y="470.45" as="targetPoint" />
            <Array as="points" />
          </mxGeometry>
        </mxCell>
        <mxCell id="htGnmACfLVr-9joNBe-F-17" value="&lt;font style=&quot;font-size: 10px;&quot;&gt;&lt;b&gt;&lt;font color=&quot;#009900&quot;&gt;10:&amp;nbsp;&lt;/font&gt;&lt;/b&gt;id : string&lt;/font&gt;" style="edgeLabel;html=1;align=center;verticalAlign=middle;resizable=0;points=[];" parent="htGnmACfLVr-9joNBe-F-16" vertex="1" connectable="0">
          <mxGeometry x="0.2794" y="1" relative="1" as="geometry">
            <mxPoint x="34" as="offset" />
          </mxGeometry>
        </mxCell>
        <mxCell id="htGnmACfLVr-9joNBe-F-21" value="" style="endArrow=classic;html=1;rounded=0;exitX=0.957;exitY=0.02;exitDx=0;exitDy=0;exitPerimeter=0;entryX=0;entryY=0.25;entryDx=0;entryDy=0;" parent="1" source="GppKYo8j6UHfjYzBci3K-178" target="htGnmACfLVr-9joNBe-F-22" edge="1">
          <mxGeometry width="50" height="50" relative="1" as="geometry">
            <mxPoint x="510" y="260" as="sourcePoint" />
            <mxPoint x="600" y="160" as="targetPoint" />
            <Array as="points" />
          </mxGeometry>
        </mxCell>
        <mxCell id="htGnmACfLVr-9joNBe-F-23" value="&lt;font style=&quot;font-size: 10px;&quot;&gt;&lt;b style=&quot;font-size: 8px;&quot;&gt;&lt;font color=&quot;#009900&quot;&gt;3 :&lt;/font&gt;&lt;/b&gt;getUserList ()&amp;nbsp;&lt;/font&gt;" style="edgeLabel;html=1;align=center;verticalAlign=middle;resizable=0;points=[];" parent="htGnmACfLVr-9joNBe-F-21" vertex="1" connectable="0">
          <mxGeometry x="-0.1731" y="-1" relative="1" as="geometry">
            <mxPoint x="21" y="-1" as="offset" />
          </mxGeometry>
        </mxCell>
        <mxCell id="htGnmACfLVr-9joNBe-F-22" value="" style="whiteSpace=wrap;html=1;" parent="1" vertex="1">
          <mxGeometry x="705" y="140" width="10" height="35" as="geometry" />
        </mxCell>
        <mxCell id="htGnmACfLVr-9joNBe-F-27" value="loop" style="rounded=0;whiteSpace=wrap;html=1;fillColor=none;strokeColor=#d79b00;" parent="1" vertex="1">
          <mxGeometry x="305" y="210" width="50" height="30" as="geometry" />
        </mxCell>
        <mxCell id="htGnmACfLVr-9joNBe-F-30" value="alt" style="rounded=0;whiteSpace=wrap;html=1;fillColor=none;strokeColor=#d79b00;" parent="1" vertex="1">
          <mxGeometry x="315" y="252.5" width="50" height="30" as="geometry" />
        </mxCell>
        <mxCell id="htGnmACfLVr-9joNBe-F-31" value="&lt;font style=&quot;font-size: 9px;&quot;&gt;[privIndiv.first == pIndID)]&lt;/font&gt;" style="text;html=1;strokeColor=none;fillColor=none;align=center;verticalAlign=middle;whiteSpace=wrap;rounded=0;labelBackgroundColor=default;" parent="1" vertex="1">
          <mxGeometry x="300" y="282.5" width="150" height="30" as="geometry" />
        </mxCell>
        <mxCell id="htGnmACfLVr-9joNBe-F-32" value="&lt;font style=&quot;font-size: 9px;&quot;&gt;[for each privIndiv]&lt;/font&gt;" style="text;html=1;strokeColor=none;fillColor=none;align=center;verticalAlign=middle;whiteSpace=wrap;rounded=0;labelBackgroundColor=default;" parent="1" vertex="1">
          <mxGeometry x="320" y="210" width="150" height="30" as="geometry" />
        </mxCell>
        <mxCell id="htGnmACfLVr-9joNBe-F-33" value="" style="rounded=0;whiteSpace=wrap;html=1;fillColor=none;strokeColor=#d79b00;" parent="1" vertex="1">
          <mxGeometry x="315" y="252.5" width="345" height="57.5" as="geometry" />
        </mxCell>
        <mxCell id="htGnmACfLVr-9joNBe-F-34" value="alt" style="rounded=0;whiteSpace=wrap;html=1;fillColor=none;strokeColor=#d79b00;" parent="1" vertex="1">
          <mxGeometry x="275" y="415" width="50" height="30" as="geometry" />
        </mxCell>
        <mxCell id="htGnmACfLVr-9joNBe-F-36" value="" style="rounded=0;whiteSpace=wrap;html=1;fillColor=none;strokeColor=#d79b00;" parent="1" vertex="1">
          <mxGeometry x="305" y="210" width="375" height="110" as="geometry" />
        </mxCell>
        <mxCell id="htGnmACfLVr-9joNBe-F-40" value="&lt;font style=&quot;font-size: 9px;&quot;&gt;[id == sensorId]&lt;/font&gt;" style="text;html=1;strokeColor=none;fillColor=none;align=center;verticalAlign=middle;whiteSpace=wrap;rounded=0;labelBackgroundColor=default;" parent="1" vertex="1">
          <mxGeometry x="300" y="413.5" width="150" height="30" as="geometry" />
        </mxCell>
        <mxCell id="htGnmACfLVr-9joNBe-F-42" value="" style="endArrow=block;html=1;rounded=0;endFill=1;" parent="1" target="htGnmACfLVr-9joNBe-F-41" edge="1">
          <mxGeometry width="50" height="50" relative="1" as="geometry">
            <mxPoint x="445" y="610" as="sourcePoint" />
            <mxPoint x="632.5" y="610" as="targetPoint" />
            <Array as="points">
              <mxPoint x="485" y="610" />
            </Array>
          </mxGeometry>
        </mxCell>
        <mxCell id="htGnmACfLVr-9joNBe-F-43" value="&lt;b style=&quot;border-color: var(--border-color); caret-color: rgb(0, 153, 0); color: rgb(0, 153, 0);&quot;&gt;14:&amp;nbsp;&lt;/b&gt;setReliable(bool reliable)" style="edgeLabel;html=1;align=center;verticalAlign=middle;resizable=0;points=[];" parent="htGnmACfLVr-9joNBe-F-42" vertex="1" connectable="0">
          <mxGeometry x="-0.4123" y="2" relative="1" as="geometry">
            <mxPoint x="32" y="-8" as="offset" />
          </mxGeometry>
        </mxCell>
        <mxCell id="htGnmACfLVr-9joNBe-F-51" value="&lt;font style=&quot;font-size: 8px;&quot;&gt;s: Sensor&lt;br&gt;&lt;/font&gt;" style="shape=umlLifeline;perimeter=lifelinePerimeter;whiteSpace=wrap;html=1;container=0;dropTarget=0;collapsible=0;recursiveResize=0;outlineConnect=0;portConstraint=eastwest;newEdgeStyle={&quot;edgeStyle&quot;:&quot;elbowEdgeStyle&quot;,&quot;elbow&quot;:&quot;vertical&quot;,&quot;curved&quot;:0,&quot;rounded&quot;:0};size=18;" parent="1" vertex="1">
          <mxGeometry x="600" y="330" width="65" height="350" as="geometry" />
        </mxCell>
        <mxCell id="htGnmACfLVr-9joNBe-F-15" value="" style="html=1;points=[];perimeter=orthogonalPerimeter;outlineConnect=0;targetShapes=umlLifeline;portConstraint=eastwest;newEdgeStyle={&quot;edgeStyle&quot;:&quot;elbowEdgeStyle&quot;,&quot;elbow&quot;:&quot;vertical&quot;,&quot;curved&quot;:0,&quot;rounded&quot;:0};" parent="htGnmACfLVr-9joNBe-F-51" vertex="1">
          <mxGeometry x="27.5" y="60" width="10" height="30" as="geometry" />
        </mxCell>
        <mxCell id="htGnmACfLVr-9joNBe-F-41" value="" style="html=1;points=[];perimeter=orthogonalPerimeter;outlineConnect=0;targetShapes=umlLifeline;portConstraint=eastwest;newEdgeStyle={&quot;edgeStyle&quot;:&quot;elbowEdgeStyle&quot;,&quot;elbow&quot;:&quot;vertical&quot;,&quot;curved&quot;:0,&quot;rounded&quot;:0};" parent="htGnmACfLVr-9joNBe-F-51" vertex="1">
          <mxGeometry x="27.5" y="270" width="10" height="50" as="geometry" />
        </mxCell>
        <mxCell id="htGnmACfLVr-9joNBe-F-54" value="" style="rounded=0;whiteSpace=wrap;html=1;fillColor=none;strokeColor=#d79b00;" parent="1" vertex="1">
          <mxGeometry x="275" y="415" width="345" height="75" as="geometry" />
        </mxCell>
        <mxCell id="2kMjdmO5oXBdjFKnev4r-8" value="" style="endArrow=block;dashed=1;endFill=0;endSize=12;html=1;rounded=0;exitX=-0.02;exitY=0.388;exitDx=0;exitDy=0;exitPerimeter=0;" parent="1" source="GppKYo8j6UHfjYzBci3K-178" target="t2bb7w7B9sQ-DITIagqw-6" edge="1">
          <mxGeometry width="160" relative="1" as="geometry">
            <mxPoint x="430" y="330" as="sourcePoint" />
            <mxPoint x="520" y="370" as="targetPoint" />
            <Array as="points">
              <mxPoint x="290" y="330" />
            </Array>
          </mxGeometry>
        </mxCell>
        <mxCell id="2kMjdmO5oXBdjFKnev4r-9" value="&lt;b style=&quot;border-color: var(--border-color); caret-color: rgb(0, 153, 0); color: rgb(0, 153, 0);&quot;&gt;6:&lt;/b&gt;pIndvSensors : vector &amp;lt;Sensor&amp;gt;" style="edgeLabel;html=1;align=center;verticalAlign=middle;resizable=0;points=[];" parent="2kMjdmO5oXBdjFKnev4r-8" vertex="1" connectable="0">
          <mxGeometry x="0.2852" y="-2" relative="1" as="geometry">
            <mxPoint x="39" y="2" as="offset" />
          </mxGeometry>
        </mxCell>
        <mxCell id="2kMjdmO5oXBdjFKnev4r-19" value="" style="endArrow=block;html=1;rounded=0;endFill=1;entryX=0;entryY=0.468;entryDx=0;entryDy=0;entryPerimeter=0;" parent="1" source="t2bb7w7B9sQ-DITIagqw-6" target="GppKYo8j6UHfjYzBci3K-178" edge="1">
          <mxGeometry width="50" height="50" relative="1" as="geometry">
            <mxPoint x="240" y="370" as="sourcePoint" />
            <mxPoint x="430" y="370" as="targetPoint" />
            <Array as="points">
              <mxPoint x="276" y="370" />
            </Array>
          </mxGeometry>
        </mxCell>
        <mxCell id="2kMjdmO5oXBdjFKnev4r-20" value="&lt;font style=&quot;font-size: 10px;&quot;&gt;&lt;b style=&quot;border-color: var(--border-color); caret-color: rgb(0, 153, 0); color: rgb(0, 153, 0);&quot;&gt;7:&amp;nbsp;&lt;/b&gt;analyseSensorData(string sensorId)&lt;/font&gt;" style="edgeLabel;html=1;align=center;verticalAlign=middle;resizable=0;points=[];" parent="2kMjdmO5oXBdjFKnev4r-19" vertex="1" connectable="0">
          <mxGeometry x="-0.4123" y="2" relative="1" as="geometry">
            <mxPoint x="39" y="-8" as="offset" />
          </mxGeometry>
        </mxCell>
        <mxCell id="2kMjdmO5oXBdjFKnev4r-21" value="" style="rounded=0;whiteSpace=wrap;html=1;fillColor=none;strokeColor=#d79b00;" parent="1" vertex="1">
          <mxGeometry x="252.5" y="380" width="407.5" height="120" as="geometry" />
        </mxCell>
        <mxCell id="2kMjdmO5oXBdjFKnev4r-22" value="loop" style="rounded=0;whiteSpace=wrap;html=1;fillColor=none;strokeColor=#d79b00;" parent="1" vertex="1">
          <mxGeometry x="252.5" y="380" width="50" height="30" as="geometry" />
        </mxCell>
        <mxCell id="2kMjdmO5oXBdjFKnev4r-23" value="&lt;font style=&quot;font-size: 9px;&quot;&gt;[for each ProvidedSensors]&lt;/font&gt;" style="text;html=1;strokeColor=none;fillColor=none;align=center;verticalAlign=middle;whiteSpace=wrap;rounded=0;labelBackgroundColor=default;" parent="1" vertex="1">
          <mxGeometry x="285" y="375" width="150" height="30" as="geometry" />
        </mxCell>
        <mxCell id="2kMjdmO5oXBdjFKnev4r-24" value="" style="html=1;points=[];perimeter=orthogonalPerimeter;outlineConnect=0;targetShapes=umlLifeline;portConstraint=eastwest;newEdgeStyle={&quot;edgeStyle&quot;:&quot;elbowEdgeStyle&quot;,&quot;elbow&quot;:&quot;vertical&quot;,&quot;curved&quot;:0,&quot;rounded&quot;:0};" parent="1" vertex="1">
          <mxGeometry x="440" y="450" width="10" height="30" as="geometry" />
        </mxCell>
        <mxCell id="2kMjdmO5oXBdjFKnev4r-26" value="" style="endArrow=classic;html=1;rounded=0;" parent="1" source="2kMjdmO5oXBdjFKnev4r-24" target="2kMjdmO5oXBdjFKnev4r-24" edge="1">
          <mxGeometry width="50" height="50" relative="1" as="geometry">
            <mxPoint x="510" y="530" as="sourcePoint" />
            <mxPoint x="560" y="480" as="targetPoint" />
          </mxGeometry>
        </mxCell>
        <mxCell id="2kMjdmO5oXBdjFKnev4r-27" value="&lt;font style=&quot;font-size: 9px;&quot;&gt;&lt;b&gt;&lt;font color=&quot;#009900&quot;&gt;11:&amp;nbsp;&lt;/font&gt;&lt;/b&gt;getMeasure() : vector &amp;lt;Measure&amp;gt;&lt;/font&gt;" style="edgeLabel;html=1;align=center;verticalAlign=middle;resizable=0;points=[];" parent="2kMjdmO5oXBdjFKnev4r-26" vertex="1" connectable="0">
          <mxGeometry x="-0.0651" y="1" relative="1" as="geometry">
            <mxPoint x="75" y="2" as="offset" />
          </mxGeometry>
        </mxCell>
        <mxCell id="2kMjdmO5oXBdjFKnev4r-37" value="" style="endArrow=block;dashed=1;endFill=0;endSize=12;html=1;rounded=0;exitX=-0.148;exitY=0.795;exitDx=0;exitDy=0;exitPerimeter=0;" parent="1" source="GppKYo8j6UHfjYzBci3K-178" target="t2bb7w7B9sQ-DITIagqw-6" edge="1">
          <mxGeometry width="160" relative="1" as="geometry">
            <mxPoint x="270" y="550" as="sourcePoint" />
            <mxPoint x="430" y="550" as="targetPoint" />
            <Array as="points">
              <mxPoint x="240" y="530" />
            </Array>
          </mxGeometry>
        </mxCell>
        <mxCell id="2kMjdmO5oXBdjFKnev4r-38" value="&lt;font style=&quot;font-size: 10px;&quot;&gt;&lt;b style=&quot;border-color: var(--border-color); font-size: 11px; caret-color: rgb(0, 153, 0); color: rgb(0, 153, 0);&quot;&gt;12:&lt;/b&gt;measures : vector &amp;lt;Measure&amp;gt;&lt;/font&gt;" style="edgeLabel;html=1;align=center;verticalAlign=middle;resizable=0;points=[];" parent="2kMjdmO5oXBdjFKnev4r-37" vertex="1" connectable="0">
          <mxGeometry x="0.1882" y="-3" relative="1" as="geometry">
            <mxPoint x="21" y="-12" as="offset" />
          </mxGeometry>
        </mxCell>
        <mxCell id="2kMjdmO5oXBdjFKnev4r-44" value="" style="endArrow=classic;html=1;rounded=0;entryX=-0.01;entryY=0.929;entryDx=0;entryDy=0;entryPerimeter=0;" parent="1" target="GppKYo8j6UHfjYzBci3K-178" edge="1">
          <mxGeometry width="50" height="50" relative="1" as="geometry">
            <mxPoint x="240" y="595" as="sourcePoint" />
            <mxPoint x="430" y="595" as="targetPoint" />
          </mxGeometry>
        </mxCell>
        <mxCell id="2kMjdmO5oXBdjFKnev4r-45" value="&lt;font style=&quot;font-size: 9px;&quot;&gt;&lt;b style=&quot;border-color: var(--border-color); caret-color: rgb(0, 153, 0); color: rgb(0, 153, 0);&quot;&gt;13:&amp;nbsp;&lt;/b&gt;setReliable(string sensor, bool reliable)&lt;/font&gt;" style="edgeLabel;html=1;align=center;verticalAlign=middle;resizable=0;points=[];" parent="2kMjdmO5oXBdjFKnev4r-44" vertex="1" connectable="0">
          <mxGeometry x="-0.1593" y="3" relative="1" as="geometry">
            <mxPoint x="16" y="-12" as="offset" />
          </mxGeometry>
        </mxCell>
        <mxCell id="2kMjdmO5oXBdjFKnev4r-51" value="" style="endArrow=block;dashed=1;endFill=0;endSize=12;html=1;rounded=0;exitX=-0.386;exitY=0.943;exitDx=0;exitDy=0;exitPerimeter=0;entryX=0.9;entryY=0.067;entryDx=0;entryDy=0;entryPerimeter=0;" parent="1" source="htGnmACfLVr-9joNBe-F-22" target="GppKYo8j6UHfjYzBci3K-178" edge="1">
          <mxGeometry width="160" relative="1" as="geometry">
            <mxPoint x="675" y="175" as="sourcePoint" />
            <mxPoint x="450" y="173" as="targetPoint" />
            <Array as="points" />
          </mxGeometry>
        </mxCell>
        <mxCell id="2kMjdmO5oXBdjFKnev4r-52" value="&lt;font style=&quot;font-size: 10px;&quot;&gt;&lt;b&gt;&lt;font color=&quot;#009900&quot;&gt;4:&amp;nbsp;&lt;/font&gt;&lt;/b&gt;privIndiv : unordered_map&amp;lt;string, PrivIndiv&amp;gt;&lt;/font&gt;" style="edgeLabel;html=1;align=center;verticalAlign=middle;resizable=0;points=[];" parent="2kMjdmO5oXBdjFKnev4r-51" vertex="1" connectable="0">
          <mxGeometry x="0.2852" y="-2" relative="1" as="geometry">
            <mxPoint x="39" as="offset" />
          </mxGeometry>
        </mxCell>
      </root>
    </mxGraphModel>
  </diagram>
</mxfile>
